<?xml version="1.0" standalone="no"?>
<!DOCTYPE svg PUBLIC "-//W3C//DTD SVG 20010904//EN"
 "http://www.w3.org/TR/2001/REC-SVG-20010904/DTD/svg10.dtd">
<svg version="1.0" xmlns="http://www.w3.org/2000/svg"
 width="600.000000pt" height="600.000000pt" viewBox="0 0 600.000000 600.000000"
 preserveAspectRatio="xMidYMid meet">
<metadata>
Created by potrace 1.14, written by Peter Selinger 2001-2017
</metadata>
<g transform="translate(0.000000,600.000000) scale(0.100000,-0.100000)"
fill="#000000" stroke="none">
<path d="M2615 5991 c6 -11 4 -13 -8 -8 -9 3 -19 2 -22 -3 -8 -14 -52 -12 -61
1 -5 8 -13 4 -26 -12 -11 -13 -17 -18 -13 -11 7 13 -28 12 -41 -1 -12 -12 -36
-8 -28 5 4 7 3 8 -5 4 -6 -4 -9 -12 -6 -17 4 -5 2 -9 -4 -9 -5 0 -13 5 -17 12
-5 7 -11 5 -21 -7 -7 -11 -13 -13 -13 -6 0 9 -5 7 -16 -4 -12 -12 -20 -13 -29
-5 -10 8 -16 7 -24 -7 -7 -13 -10 -14 -11 -4 0 11 -4 10 -16 -5 -8 -10 -13
-13 -9 -6 3 6 1 12 -4 12 -6 0 -11 -5 -11 -11 0 -8 -6 -7 -17 2 -11 10 -14 10
-9 2 7 -13 -4 -17 -33 -14 -7 2 -10 -2 -6 -9 5 -9 1 -10 -14 -5 -14 4 -21 2
-21 -7 0 -10 -3 -9 -10 2 -6 10 -10 11 -10 3 0 -7 -9 -13 -21 -13 -13 0 -18
-4 -13 -12 4 -7 4 -10 -1 -6 -4 4 -16 3 -26 -3 -15 -8 -19 -6 -20 8 0 14 -2
13 -9 -4 -8 -21 -38 -30 -74 -24 -5 1 -6 -5 -2 -14 4 -11 2 -14 -7 -8 -6 4
-18 8 -25 9 -11 2 -11 0 0 -14 8 -10 9 -13 1 -9 -6 4 -14 3 -18 -3 -4 -6 -11
-8 -16 -4 -5 3 -17 0 -26 -8 -15 -11 -16 -11 -10 5 4 11 3 16 -3 12 -6 -3 -10
-13 -10 -20 0 -9 -6 -12 -15 -9 -8 4 -17 -1 -21 -10 -3 -9 -10 -16 -16 -16 -5
0 -7 4 -3 9 3 5 0 13 -6 17 -8 4 -9 3 -5 -4 4 -7 2 -12 -4 -12 -7 0 -9 -7 -6
-16 5 -14 4 -15 -9 -4 -11 9 -15 9 -15 1 0 -7 -4 -9 -10 -6 -5 3 -10 1 -10 -5
0 -7 -7 -10 -15 -6 -10 3 -15 -1 -16 -12 0 -10 -3 -12 -6 -4 -2 6 -10 12 -16
12 -5 0 -8 -3 -4 -6 3 -3 -2 -14 -11 -24 -12 -15 -19 -17 -29 -8 -8 6 -13 7
-12 2 4 -21 -2 -28 -11 -14 -7 11 -10 11 -10 2 0 -7 -4 -10 -10 -7 -6 3 -7 -1
-4 -10 5 -13 2 -14 -22 -5 -28 10 -28 9 -9 -6 20 -16 20 -16 -2 -11 -16 4 -24
-1 -29 -15 -4 -14 -9 -17 -14 -9 -5 8 -12 4 -24 -13 -9 -14 -26 -26 -37 -26
-11 0 -18 -4 -15 -8 3 -4 -7 -8 -22 -8 -18 1 -30 -6 -36 -20 -5 -12 -19 -27
-30 -34 -21 -13 -21 -13 -2 9 17 18 17 21 3 15 -9 -3 -17 -9 -17 -13 0 -4 -7
-16 -16 -27 -8 -10 -13 -13 -9 -6 3 6 1 12 -4 12 -6 0 -12 -4 -12 -10 -1 -5
-2 -14 -3 -19 0 -5 -5 -13 -10 -18 -5 -5 -6 -2 -1 6 5 9 3 12 -6 9 -8 -3 -13
-11 -11 -17 2 -9 -3 -9 -19 0 -15 8 -19 8 -15 0 4 -6 1 -11 -6 -11 -9 0 -9 -3
2 -10 13 -8 12 -10 -2 -10 -10 0 -18 -4 -18 -9 0 -5 -7 -12 -16 -15 -12 -5
-14 -3 -8 7 5 7 1 4 -10 -8 -10 -11 -23 -19 -29 -17 -6 2 -4 -5 4 -14 13 -16
12 -16 -8 -5 -19 10 -22 9 -17 -4 4 -10 -3 -18 -20 -25 -15 -5 -29 -17 -32
-25 -4 -8 -10 -15 -16 -15 -5 0 -6 5 -2 12 4 7 3 8 -5 4 -6 -4 -9 -12 -6 -17
6 -8 -15 -31 -59 -67 -9 -7 -22 -10 -29 -6 -7 5 -7 1 2 -10 8 -9 10 -16 5 -15
-22 4 -34 -2 -34 -17 0 -8 -4 -13 -10 -9 -5 3 -16 -8 -25 -25 -10 -20 -22 -30
-30 -26 -10 3 -12 0 -8 -11 5 -13 2 -15 -12 -10 -16 7 -16 5 -4 -10 8 -9 9
-14 3 -10 -6 3 -20 -1 -30 -9 -10 -9 -14 -13 -8 -10 6 3 11 -1 11 -8 0 -8 -7
-12 -15 -8 -9 3 -13 1 -9 -5 4 -6 -3 -13 -14 -16 -15 -4 -20 -11 -15 -22 3 -9
2 -13 -4 -10 -6 3 -10 1 -10 -4 0 -6 -3 -10 -7 -10 -20 3 -26 -2 -13 -11 13
-8 13 -10 -2 -10 -9 0 -20 -5 -24 -12 -5 -7 -3 -8 6 -3 9 5 11 4 6 -3 -4 -7
-14 -12 -22 -12 -8 0 -14 -5 -14 -11 0 -5 6 -7 13 -4 6 4 3 -1 -8 -10 -11 -9
-19 -21 -17 -27 2 -7 -4 -6 -13 2 -9 7 -15 9 -14 4 4 -25 -2 -45 -13 -38 -8 5
-9 2 -5 -10 4 -11 3 -15 -4 -11 -6 4 -13 -2 -16 -14 -3 -11 -9 -18 -14 -15 -8
5 -14 -18 -10 -39 1 -5 -3 -6 -9 -2 -5 3 -10 -1 -10 -10 0 -9 -4 -13 -10 -10
-5 3 -10 -1 -10 -9 0 -9 -4 -16 -10 -16 -5 0 -10 -7 -10 -15 0 -8 -5 -15 -11
-15 -5 0 -8 -4 -5 -9 3 -5 -1 -12 -10 -15 -9 -4 -14 -9 -11 -13 11 -10 -13
-44 -26 -36 -7 4 -7 0 2 -10 12 -15 11 -17 -3 -17 -9 0 -16 -7 -16 -15 0 -9
-7 -18 -15 -21 -13 -5 -13 -9 -3 -22 10 -12 10 -14 1 -8 -8 4 -13 2 -13 -4 0
-6 -5 -8 -12 -4 -9 5 -9 2 1 -9 12 -15 11 -17 -3 -17 -10 0 -14 -4 -11 -10 3
-5 1 -10 -6 -10 -8 0 -8 -4 1 -15 11 -13 10 -14 -5 -9 -15 6 -17 3 -13 -14 3
-12 3 -21 -1 -20 -19 2 -24 -3 -11 -12 13 -8 13 -10 -2 -10 -9 0 -20 -5 -24
-12 -4 -6 -3 -8 3 -5 21 13 8 -26 -14 -40 -17 -12 -21 -19 -13 -28 8 -10 5
-17 -11 -29 -21 -15 -38 -53 -18 -40 5 3 6 10 3 16 -5 7 -2 8 5 4 9 -6 9 -12
-3 -25 -9 -10 -13 -20 -10 -23 3 -3 -2 -5 -12 -4 -10 0 -18 -7 -19 -19 -1 -11
-6 -29 -10 -39 -7 -15 -5 -18 6 -12 8 4 5 0 -5 -8 -11 -9 -16 -16 -11 -16 5 0
4 -5 -3 -12 -7 -7 -12 -20 -12 -31 0 -12 -4 -16 -12 -11 -8 5 -7 0 2 -11 14
-17 13 -18 -3 -12 -15 5 -16 3 -7 -12 7 -14 6 -20 -4 -24 -9 -3 -13 -16 -12
-31 2 -18 -2 -26 -13 -26 -14 0 -14 -2 -1 -10 13 -9 13 -10 0 -10 -9 0 -11 -3
-5 -8 6 -4 11 -13 13 -21 3 -12 0 -12 -12 -2 -13 11 -15 10 -11 -8 2 -12 7
-27 11 -34 5 -7 0 -6 -12 3 -10 8 -16 11 -12 6 4 -5 3 -18 -3 -29 -8 -14 -8
-18 0 -13 18 11 13 -5 -6 -21 -17 -14 -17 -14 1 -8 20 6 20 6 0 -16 -12 -15
-14 -20 -4 -15 10 5 10 3 -2 -6 -12 -11 -14 -18 -6 -32 7 -13 7 -17 0 -12 -6
3 -13 2 -17 -4 -3 -5 -1 -10 5 -10 7 0 8 -6 0 -19 -13 -26 -13 -34 3 -26 6 4
2 -2 -11 -12 -21 -17 -21 -20 -7 -40 14 -19 14 -22 1 -17 -15 6 -17 -18 -3
-32 3 -4 -3 -20 -15 -37 -12 -17 -17 -27 -10 -23 16 10 15 -6 0 -23 -11 -11
-10 -13 2 -7 8 4 6 0 -4 -8 -16 -13 -16 -16 -5 -16 9 0 16 -6 16 -14 0 -9 -6
-12 -16 -8 -14 5 -14 3 -2 -11 7 -9 10 -17 5 -17 -14 0 -14 -54 -1 -62 9 -6 9
-8 0 -8 -9 0 -12 -68 -11 -275 1 -180 4 -272 11 -268 6 4 7 1 2 -7 -12 -19
-13 -60 -1 -67 5 -4 6 -1 1 7 -5 8 -4 11 2 7 11 -7 11 -36 -1 -55 -7 -11 -1
-16 17 -13 5 1 6 -3 2 -9 -3 -6 -11 -8 -16 -5 -5 4 -9 1 -9 -4 0 -6 5 -11 11
-11 8 0 7 -6 -2 -17 -12 -15 -12 -16 3 -10 14 5 16 0 13 -34 -4 -31 -1 -39 13
-40 14 0 14 -2 -3 -9 -11 -5 -14 -9 -6 -9 10 -1 11 -4 2 -15 -9 -11 -9 -16 0
-22 8 -5 10 -3 4 7 -6 11 -5 12 5 2 11 -10 11 -15 0 -28 -7 -8 -10 -18 -6 -22
3 -3 6 -1 6 6 0 7 5 9 10 6 7 -4 7 -12 0 -25 -12 -23 -13 -40 -1 -22 6 10 10
9 14 -7 3 -14 1 -19 -6 -14 -7 3 -3 -4 8 -16 16 -19 17 -24 5 -31 -10 -7 -11
-10 -2 -10 7 0 12 -13 12 -31 0 -16 4 -28 9 -24 5 3 9 -9 8 -27 -1 -20 3 -32
10 -31 6 1 10 -10 9 -27 -1 -17 2 -30 7 -30 4 0 5 -4 2 -10 -3 -5 0 -10 7 -10
9 0 9 -3 -2 -10 -12 -8 -12 -10 5 -10 17 0 17 -2 5 -10 -13 -9 -13 -10 0 -10
13 0 13 -1 0 -10 -13 -9 -13 -10 0 -11 8 -1 19 -1 23 0 5 1 6 -3 2 -9 -3 -5
-3 -16 2 -22 10 -17 13 -39 4 -34 -4 3 -7 -4 -7 -14 0 -14 4 -16 12 -9 8 7 14
6 19 -1 3 -5 1 -10 -4 -10 -6 0 -11 -5 -11 -11 0 -5 5 -7 10 -4 6 4 10 -5 10
-20 0 -14 4 -24 8 -21 5 3 8 -5 7 -17 -3 -29 13 -59 27 -51 6 4 8 -1 4 -14 -5
-15 -1 -21 15 -25 19 -5 20 -8 9 -21 -9 -12 -9 -16 -1 -16 7 0 9 -5 5 -12 -5
-8 -2 -9 11 -4 15 5 16 4 5 -9 -10 -12 -10 -15 0 -15 8 0 10 -3 7 -7 -4 -3 0
-17 8 -30 9 -13 12 -23 8 -23 -3 0 3 -10 15 -23 12 -13 19 -28 15 -32 -5 -5 0
-3 9 4 22 17 23 8 2 -13 -14 -15 -14 -16 0 -16 9 0 16 -4 16 -10 0 -5 8 -10
18 -10 10 0 13 -3 6 -8 -13 -8 -15 -44 -2 -36 5 3 5 11 2 17 -4 7 -3 8 2 4 5
-5 9 -16 10 -25 1 -23 15 -53 23 -49 3 2 15 -5 25 -16 16 -17 17 -19 3 -14 -9
3 -17 2 -17 -3 0 -6 7 -10 16 -10 8 0 13 -4 9 -9 -3 -5 4 -12 15 -16 11 -4 18
-10 15 -15 -8 -12 6 -41 16 -34 5 3 9 -2 9 -10 0 -9 4 -16 10 -16 5 0 9 -3 9
-8 -3 -19 2 -33 11 -27 6 3 10 -1 10 -10 0 -10 5 -13 12 -9 8 5 9 2 5 -9 -4
-11 -1 -17 9 -17 8 0 13 -4 10 -9 -3 -5 1 -11 9 -15 8 -3 15 -12 15 -21 0 -8
6 -15 14 -15 8 0 18 -5 22 -12 4 -7 3 -8 -4 -4 -8 5 -10 1 -6 -9 4 -9 13 -14
20 -11 8 3 13 2 13 -2 -4 -21 2 -42 12 -42 5 0 7 5 3 12 -4 7 -3 8 4 4 6 -4 8
-14 5 -23 -4 -11 -3 -14 5 -9 7 4 12 1 12 -7 0 -8 7 -18 16 -21 8 -3 12 -11 8
-17 -4 -8 -3 -9 4 -5 7 4 12 2 12 -4 0 -6 4 -9 9 -6 5 3 12 -6 15 -20 6 -22 9
-24 23 -12 14 11 15 10 9 -10 -5 -14 -3 -22 4 -22 6 0 21 -10 33 -21 12 -12
15 -18 7 -14 -13 8 -13 6 -2 -7 8 -10 20 -14 30 -11 15 6 16 5 2 -12 -9 -11
-10 -16 -3 -11 8 4 13 2 13 -5 0 -7 3 -10 6 -6 8 8 33 -16 27 -25 -2 -5 1 -8
6 -8 6 0 24 -14 39 -30 16 -17 35 -30 41 -30 7 0 9 -4 6 -10 -6 -9 8 -14 28
-11 5 1 6 -3 2 -9 -3 -5 -1 -10 5 -10 6 0 8 -5 4 -12 -6 -10 -5 -10 8 -1 18
15 29 7 21 -15 -5 -11 -2 -14 10 -9 12 4 17 1 17 -9 0 -11 6 -14 16 -10 8 3
13 2 11 -2 -6 -9 19 -33 27 -25 3 4 6 -2 6 -13 0 -16 2 -17 10 -4 8 13 10 13
10 -2 0 -15 34 -35 52 -30 4 1 4 -6 1 -15 -5 -13 -2 -15 11 -10 14 6 17 3 12
-9 -6 -15 -4 -15 11 -3 15 12 16 12 10 -3 -5 -16 5 -30 26 -34 4 -1 9 -3 12
-4 3 -1 11 -3 18 -4 6 -1 11 -8 9 -14 -2 -10 3 -10 17 -2 16 8 21 6 26 -10 3
-11 13 -20 21 -20 8 0 14 -4 14 -10 0 -5 5 -10 11 -10 6 0 17 -7 25 -15 8 -8
22 -11 31 -8 11 4 14 3 9 -5 -7 -11 7 -16 41 -15 7 1 11 -3 8 -7 -3 -5 4 -11
15 -15 11 -4 18 -11 14 -16 -3 -5 -2 -8 3 -7 4 1 18 -3 29 -10 12 -6 24 -8 28
-5 3 3 6 0 6 -8 0 -11 2 -11 10 1 9 13 10 13 11 0 1 -8 1 -18 0 -22 0 -5 4 -8
9 -8 6 0 10 5 10 10 0 6 5 10 11 10 5 0 8 -4 5 -8 -3 -5 11 -14 30 -21 18 -7
34 -18 34 -24 0 -7 4 -6 10 3 6 10 10 11 10 3 0 -7 9 -13 21 -13 22 0 52 -24
42 -34 -4 -3 -3 -6 2 -6 4 0 14 8 21 18 13 16 14 16 7 -2 -5 -16 -3 -18 16
-13 14 3 24 0 27 -8 3 -8 12 -11 20 -8 7 3 17 -2 20 -11 8 -22 25 -20 19 1 -3
10 1 5 9 -12 11 -22 15 -25 16 -11 0 15 3 16 15 6 9 -7 18 -10 21 -7 4 3 15
-4 25 -16 14 -18 20 -20 31 -9 11 11 10 12 -3 7 -10 -4 -19 -2 -23 3 -3 5 5 8
17 7 12 -1 21 -6 20 -11 -3 -16 40 -34 54 -22 9 7 13 7 13 0 0 -7 7 -9 17 -5
10 4 14 2 9 -5 -4 -6 1 -11 11 -11 10 1 28 -2 41 -6 15 -5 22 -3 23 6 0 8 4 4
9 -8 9 -21 33 -25 59 -8 5 3 13 0 17 -6 5 -8 3 -9 -6 -4 -9 5 -11 4 -6 -3 4
-8 15 -8 31 -2 16 6 27 6 31 -2 5 -7 3 -8 -6 -3 -9 5 -11 4 -6 -4 6 -9 11 -9
24 1 9 8 13 8 9 2 -5 -8 5 -11 33 -10 22 1 40 -1 40 -6 0 -4 7 -4 17 -1 12 5
14 3 8 -7 -5 -8 -4 -11 3 -6 5 3 12 3 15 -1 2 -5 3 -3 1 3 -1 7 10 11 27 10
17 0 27 -6 25 -12 -5 -12 94 -11 114 1 9 5 11 4 6 -3 -5 -8 1 -12 14 -12 14 0
19 4 14 13 -6 9 -5 9 7 0 11 -9 79 -12 250 -11 129 0 239 3 244 6 15 9 36 11
31 3 -3 -4 4 -8 15 -8 10 -1 19 3 19 8 0 6 -5 7 -12 3 -7 -4 -8 -3 -4 4 5 9
14 7 32 -5 14 -9 24 -12 23 -7 -4 21 2 28 11 14 9 -13 10 -13 10 0 0 12 2 12
8 2 5 -7 16 -10 25 -6 9 3 14 10 11 15 -3 5 2 6 10 3 9 -3 13 -11 10 -18 -3
-6 3 0 14 13 14 18 21 21 27 11 5 -8 4 -11 -2 -7 -5 3 -10 0 -10 -8 0 -10 4
-12 12 -5 7 5 16 6 20 2 5 -4 5 -2 1 5 -3 6 -2 14 4 18 5 3 10 1 10 -6 0 -7 7
-4 15 7 8 10 15 15 14 9 -3 -24 2 -27 17 -9 8 10 13 13 9 7 -4 -9 -1 -11 9 -7
9 3 14 10 11 14 -2 4 9 6 25 4 17 -2 30 1 30 7 0 7 6 6 17 -2 15 -12 16 -12
10 5 -6 16 -5 17 8 6 12 -10 15 -10 15 1 0 12 2 12 9 1 6 -11 10 -10 15 3 5
14 9 15 21 5 12 -10 15 -9 15 6 0 17 1 17 15 -2 12 -15 14 -16 9 -2 -4 13 -1
16 15 13 12 -2 21 1 21 6 0 6 7 6 19 -1 29 -15 38 -12 15 5 -18 13 -18 14 5 8
17 -4 22 -3 17 5 -4 7 -2 12 3 12 6 0 11 -4 11 -8 0 -5 7 -9 15 -9 11 0 12 4
3 14 -9 11 -7 12 7 7 13 -5 16 -4 10 5 -6 10 -3 11 14 2 13 -7 21 -8 21 -2 0
6 6 8 14 5 8 -3 17 0 22 7 4 7 3 10 -4 5 -6 -3 -13 -2 -17 3 -3 6 4 8 16 6 13
-3 29 1 38 8 12 9 13 9 7 0 -5 -9 -2 -11 8 -7 9 3 13 11 9 18 -4 6 2 4 12 -4
15 -12 17 -12 10 -1 -6 11 -4 13 10 7 15 -5 16 -4 5 9 -11 14 -10 14 14 5 15
-5 25 -6 21 -1 -3 5 -1 12 5 16 5 3 10 0 10 -7 1 -7 7 -2 15 12 8 14 14 20 15
14 0 -6 9 -10 19 -9 22 1 53 24 47 34 -3 4 8 6 24 5 17 -1 35 5 42 15 12 14
11 15 -4 2 -10 -7 -18 -9 -18 -3 0 15 26 22 38 10 6 -6 12 -6 17 3 6 8 4 10
-6 4 -12 -8 -12 -6 0 9 11 13 16 14 22 4 8 -12 13 -4 10 14 0 3 13 9 29 13 17
4 30 12 30 18 0 7 4 6 10 -3 8 -13 10 -13 10 1 0 10 7 16 18 15 10 0 16 6 16
16 -1 10 3 15 9 11 5 -3 17 3 25 13 14 19 15 19 8 0 -7 -19 -6 -19 13 -2 12
11 25 15 33 10 11 -6 11 -5 0 8 -10 13 -10 18 -1 24 8 4 9 3 5 -4 -11 -18 4
-14 22 6 10 10 13 12 8 5 -6 -10 -5 -12 5 -8 8 3 23 18 33 33 10 15 15 19 12
10 -3 -12 -1 -15 10 -11 8 3 13 12 10 20 -3 8 -1 11 4 8 6 -3 13 1 16 10 5 12
10 13 20 4 10 -8 12 -6 9 10 -3 18 -1 20 15 11 16 -8 18 -8 14 5 -4 9 0 15 10
15 16 0 42 38 38 54 -2 5 4 3 13 -4 15 -12 18 -12 26 2 5 9 20 18 33 22 13 3
27 13 30 23 6 16 6 16 -12 0 -10 -9 -22 -17 -27 -17 -4 0 4 9 18 20 14 11 30
20 37 20 6 0 9 4 6 9 -4 5 4 7 16 4 17 -3 19 -2 9 5 -11 8 -9 11 8 17 14 4 20
12 17 21 -3 9 -1 12 4 9 6 -3 10 0 10 7 0 11 2 10 9 0 6 -10 10 -9 14 7 3 12
12 21 21 21 9 0 16 7 16 15 0 8 7 15 16 15 8 0 13 4 10 9 -9 15 54 58 77 52 5
-1 6 3 2 8 -3 6 -13 8 -23 5 -15 -5 -15 -5 1 6 9 6 22 8 27 5 6 -3 7 1 4 9 -4
11 0 16 11 16 9 0 13 5 10 10 -3 6 1 10 9 10 9 0 16 5 16 11 0 5 -5 7 -12 3
-7 -4 -8 -3 -4 4 4 6 13 9 20 6 8 -3 17 0 22 7 5 8 3 10 -7 5 -8 -4 -3 2 11
14 14 12 19 18 11 14 -9 -5 -12 -3 -7 4 4 7 14 12 23 12 10 0 13 6 9 16 -3 8
-2 12 4 9 6 -3 10 -1 10 5 0 6 5 8 12 4 8 -5 9 -2 5 10 -5 13 -3 17 6 13 8 -3
14 3 14 16 1 11 7 25 14 31 9 8 10 7 4 -4 -4 -8 4 -4 17 10 14 14 23 28 21 33
-2 4 1 7 6 7 6 0 10 6 8 13 -1 6 4 11 11 10 6 -2 12 4 12 12 0 7 6 18 13 22 6
4 12 15 12 23 0 8 6 14 13 12 7 -1 12 4 10 12 -2 7 6 22 17 32 12 11 14 15 5
9 -13 -8 -13 -8 -3 6 7 9 10 19 6 23 -4 4 1 4 12 0 15 -6 17 -4 12 10 -4 10
-3 15 3 11 6 -3 10 -1 10 5 0 6 5 8 13 4 9 -6 9 -4 -1 8 -11 14 -9 19 10 32
13 9 24 21 24 26 1 6 2 18 3 28 1 15 3 15 11 2 8 -12 10 -11 10 6 0 12 9 31
20 44 14 16 17 26 9 30 -6 4 -1 10 13 14 14 4 18 9 11 13 -18 7 -16 26 1 20 8
-3 17 1 20 9 4 10 1 13 -7 9 -6 -4 -5 -1 4 7 9 7 14 19 11 27 -3 8 0 11 7 7 7
-5 9 -1 5 8 -4 11 0 16 12 16 16 0 17 2 4 10 -11 7 -11 10 -2 10 7 0 10 5 7
10 -3 6 -1 10 6 10 8 0 8 4 -1 15 -11 13 -10 14 6 9 10 -4 16 -4 12 0 -4 5 1
17 11 27 10 11 17 31 15 45 -2 20 1 24 13 20 13 -5 14 -4 3 9 -9 11 -9 15 -1
15 7 0 9 4 6 10 -3 5 -1 10 5 10 6 0 9 4 5 9 -3 5 2 16 10 24 16 17 21 32 7
23 -5 -3 -9 1 -9 9 0 8 3 12 7 10 3 -2 12 5 19 17 7 11 8 17 2 13 -6 -3 -11
-1 -11 4 0 6 3 11 8 11 4 0 12 11 19 25 6 14 7 23 2 19 -5 -3 -9 -1 -9 4 0 6
7 13 15 16 13 4 14 10 5 26 -9 17 -8 19 7 13 16 -6 17 -5 3 12 -14 17 -13 18
5 11 11 -4 16 -4 12 0 -4 4 -1 14 6 23 11 14 10 14 -6 2 -17 -13 -17 -13 -6
12 7 15 17 23 23 20 6 -4 5 0 -2 9 -8 10 -9 17 -2 20 5 1 12 13 15 26 2 12 1
20 -3 18 -4 -2 -8 4 -8 14 0 12 5 16 16 12 13 -5 13 -3 1 11 -12 15 -9 21 10
19 3 -1 6 5 6 13 0 8 -5 11 -11 8 -6 -3 -5 0 2 8 6 7 12 26 12 42 0 20 4 26
13 21 8 -5 8 -2 -2 9 -11 14 -11 17 0 17 11 0 11 2 -1 10 -13 8 -13 10 -1 10
11 0 9 4 -5 15 -16 13 -16 14 -1 9 15 -5 17 1 17 46 0 38 3 49 13 44 6 -4 9
-4 5 1 -4 4 -3 14 4 22 9 11 7 12 -8 6 -17 -6 -18 -5 -4 11 18 23 21 45 8 69
-7 14 -7 17 0 13 14 -8 14 611 0 637 -6 11 -5 17 3 17 8 0 8 5 -2 16 -14 17
-20 56 -7 48 4 -3 8 0 8 5 0 6 -5 11 -12 11 -9 0 -9 3 0 12 7 7 12 17 12 22 0
6 -4 5 -9 -2 -6 -10 -10 -7 -13 12 -3 14 -2 23 3 21 4 -3 11 0 15 6 4 8 3 9
-4 5 -8 -5 -12 0 -12 13 0 12 -5 21 -12 21 -9 0 -9 3 -1 11 13 13 6 42 -7 34
-5 -3 -12 0 -16 6 -4 8 -3 9 4 5 7 -4 13 -1 13 6 2 24 -3 43 -13 49 -7 4 -6 9
1 13 6 4 11 13 11 19 0 9 -2 9 -8 1 -5 -9 -11 -8 -20 2 -11 12 -10 14 5 14 15
0 16 2 3 10 -13 9 -13 10 0 10 12 1 11 3 -2 11 -12 6 -18 22 -18 44 0 21 -5
35 -12 35 -9 0 -8 4 2 10 13 8 12 10 -2 10 -10 0 -18 5 -18 11 0 5 4 7 10 4 6
-3 7 1 4 9 -3 9 -11 16 -18 17 -6 0 -2 4 9 9 20 8 20 9 -1 9 -17 1 -20 6 -16
28 4 21 2 25 -11 20 -11 -4 -14 -2 -10 8 3 8 10 12 17 8 6 -4 3 5 -7 20 -10
15 -15 33 -11 39 5 7 2 9 -8 6 -10 -4 -15 0 -15 10 0 39 -4 52 -14 52 -5 0 -7
-6 -3 -12 4 -7 3 -9 -1 -5 -16 14 -14 36 3 30 15 -4 15 -3 0 10 -10 8 -18 22
-18 31 0 11 -4 15 -12 10 -9 -5 -9 -2 1 9 10 13 10 17 1 17 -7 0 -10 7 -7 14
4 11 1 13 -11 9 -15 -6 -16 -5 -2 12 8 10 10 16 4 12 -7 -4 -14 4 -17 22 -3
16 -13 36 -22 44 -8 9 -15 25 -15 36 0 11 -5 23 -12 27 -7 5 -8 3 -3 -6 5 -8
4 -11 -3 -7 -5 4 -8 16 -5 27 3 11 0 20 -6 20 -6 0 -11 7 -11 15 0 8 -5 15
-11 15 -5 0 -9 10 -7 23 2 13 -2 21 -9 19 -7 -1 -13 7 -13 18 0 11 -5 20 -11
20 -6 0 -9 7 -6 15 4 8 -5 23 -21 36 -15 11 -25 23 -23 26 7 9 -22 42 -32 36
-5 -3 -4 4 2 14 12 24 5 34 -17 26 -10 -4 -13 -2 -8 5 3 6 1 14 -5 17 -5 4 -8
13 -5 20 3 9 -2 11 -17 8 -18 -4 -19 -3 -7 6 8 6 10 11 4 11 -7 0 -14 9 -17
20 -4 14 -10 18 -24 14 -16 -6 -16 -5 2 10 17 14 17 15 2 10 -10 -4 -17 -2
-15 3 2 6 -6 19 -17 29 -12 11 -14 15 -5 10 8 -5 -1 6 -21 25 -19 19 -27 28
-17 20 16 -12 16 -12 5 12 -6 14 -14 25 -17 25 -18 -1 -30 3 -30 13 0 5 5 7
12 3 7 -4 8 -3 4 4 -4 6 -13 9 -22 5 -9 -3 -14 0 -12 8 2 8 -3 13 -10 11 -9
-2 -11 4 -7 18 5 16 3 19 -11 13 -13 -5 -15 -3 -9 7 6 10 4 12 -10 6 -16 -6
-16 -4 -4 11 8 9 9 14 2 10 -7 -4 -14 1 -18 13 -5 17 -10 19 -21 9 -17 -14
-19 2 -1 20 10 11 10 13 0 7 -7 -4 -13 -2 -13 4 0 7 -7 9 -15 6 -11 -4 -15 0
-13 12 2 11 -3 17 -15 16 -14 -2 -15 1 -6 12 8 10 6 12 -10 9 -13 -2 -19 0
-15 6 3 6 -2 17 -12 25 -11 9 -13 13 -7 9 9 -4 11 -1 6 11 -4 11 -8 13 -11 6
-2 -7 -8 -12 -14 -12 -6 0 -8 6 -5 14 4 10 0 14 -13 11 -11 -2 -19 -1 -19 3 3
21 -4 30 -26 36 -14 4 -25 11 -25 17 0 6 5 7 10 4 6 -3 10 -1 10 6 0 6 -8 9
-20 6 -18 -5 -25 4 -21 26 1 5 -2 6 -6 4 -11 -7 -52 16 -50 27 1 5 -7 14 -18
20 -11 6 -33 25 -49 41 -16 17 -25 23 -21 15 5 -8 -5 -1 -22 15 -51 49 -76 71
-70 59 3 -6 0 -11 -7 -11 -8 0 -12 7 -9 14 4 9 0 13 -9 11 -8 -2 -27 12 -42
29 -15 18 -30 32 -34 32 -25 -4 -42 3 -42 17 0 11 -6 15 -20 11 -11 -3 -18 -1
-14 4 3 5 -2 9 -10 9 -9 0 -16 8 -16 18 0 13 -2 14 -9 4 -6 -10 -10 -9 -14 7
-3 14 -10 19 -21 15 -9 -3 -16 -1 -16 5 0 6 -6 8 -14 5 -8 -3 -17 0 -22 7 -5
8 -3 10 6 4 9 -5 11 -4 6 4 -6 9 -11 9 -24 -1 -12 -10 -14 -10 -8 0 4 7 1 12
-8 12 -9 0 -16 5 -16 10 0 6 -9 10 -21 10 -13 0 -18 4 -13 12 5 8 0 9 -14 6
-12 -4 -25 -1 -29 4 -4 7 -1 8 8 3 11 -6 12 -5 1 6 -10 11 -16 11 -35 0 -12
-8 -19 -10 -15 -6 4 5 2 15 -5 24 -11 14 -10 15 8 1 19 -14 19 -14 6 3 -11 14
-17 15 -28 5 -11 -9 -13 -8 -11 2 2 8 -5 14 -17 15 -11 0 -19 5 -18 11 1 6 -4
11 -12 11 -8 0 -12 -4 -10 -8 3 -4 -3 -6 -12 -5 -9 2 -19 8 -21 14 -2 7 -9 9
-15 5 -6 -4 -8 0 -4 11 5 14 3 15 -13 6 -27 -15 -37 -12 -15 4 19 13 18 14 -6
9 -16 -3 -32 1 -42 11 -11 11 -18 13 -23 5 -5 -8 -9 -8 -14 1 -4 7 -19 13 -33
13 -14 1 -23 6 -19 11 3 5 -5 7 -17 3 -18 -4 -20 -3 -10 9 10 12 9 13 -4 9 -8
-4 -18 -2 -21 3 -3 6 -16 8 -28 4 -16 -4 -19 -2 -13 9 7 11 5 11 -10 -1 -11
-9 -16 -10 -11 -2 4 6 3 12 -3 12 -5 0 -12 -6 -14 -12 -3 -7 -6 -4 -6 7 -1 17
-3 17 -11 5 -6 -9 -10 -10 -10 -3 0 19 -37 36 -46 21 -4 -6 -3 -8 4 -4 6 3 13
2 16 -3 4 -5 -1 -8 -10 -7 -8 1 -19 8 -24 15 -4 8 -13 10 -19 7 -6 -4 -11 -2
-11 4 0 6 -5 8 -10 5 -6 -4 -7 -11 -4 -17 4 -7 2 -8 -5 -4 -6 4 -9 11 -6 16 3
4 -2 10 -10 14 -10 3 -15 -1 -15 -12 0 -14 -2 -15 -9 -2 -6 8 -7 19 -3 25 3 5
-2 4 -11 -4 -11 -9 -17 -10 -17 -2 0 15 -27 14 -33 -1 -4 -8 -6 -7 -6 4 -1 11
-7 15 -23 10 -16 -4 -19 -2 -14 9 4 8 0 5 -8 -5 -14 -17 -16 -17 -16 -3 0 11
-5 14 -17 10 -10 -4 -14 -2 -10 4 3 5 0 10 -8 10 -8 0 -12 -4 -9 -8 2 -4 0
-10 -6 -14 -5 -3 -10 1 -10 9 0 10 -6 13 -17 9 -12 -5 -14 -3 -8 8 8 12 6 12
-8 1 -14 -12 -19 -12 -33 2 -14 14 -34 14 -34 0 0 -3 4 -3 9 1 5 3 12 2 15 -3
2 -4 -6 -8 -20 -8 -14 0 -23 5 -20 11 3 8 -91 11 -325 12 -233 1 -327 -2 -323
-9 5 -7 2 -8 -7 -2 -20 12 -39 14 -39 3 0 -6 -9 -5 -22 2 -18 10 -20 9 -14 -7
6 -16 5 -16 -15 2 -12 10 -19 13 -14 5z m715 -11 c0 -5 -2 -10 -4 -10 -3 0 -8
5 -11 10 -3 6 -1 10 4 10 6 0 11 -4 11 -10z m604 -118 c3 -5 -1 -9 -9 -9 -8 0
-12 4 -9 9 3 4 7 8 9 8 2 0 6 -4 9 -8z m-2554 -332 c0 -5 -5 -10 -11 -10 -5 0
-7 5 -4 10 3 6 8 10 11 10 2 0 4 -4 4 -10z m3290 -25 c11 -13 10 -14 -4 -9 -9
3 -16 10 -16 15 0 13 6 11 20 -6z m930 -980 c7 -9 8 -15 2 -15 -5 0 -12 7 -16
15 -3 8 -4 15 -2 15 2 0 9 -7 16 -15z m134 -281 c3 -8 2 -12 -4 -9 -6 3 -10
10 -10 16 0 14 7 11 14 -7z m-5709 -944 c3 -5 1 -10 -4 -10 -6 0 -11 5 -11 10
0 6 2 10 4 10 3 0 8 -4 11 -10z m5895 -1054 c0 -3 -4 -8 -10 -11 -5 -3 -10 -1
-10 4 0 6 5 11 10 11 6 0 10 -2 10 -4z m-5673 -431 c0 -8 -4 -12 -9 -9 -5 3
-6 10 -3 15 9 13 12 11 12 -6z m5523 -9 c0 -2 -8 -10 -17 -17 -16 -13 -17 -12
-4 4 13 16 21 21 21 13z m-5330 -366 c0 -5 -2 -10 -4 -10 -3 0 -8 5 -11 10 -3
6 -1 10 4 10 6 0 11 -4 11 -10z m890 -940 c0 -5 -2 -10 -4 -10 -3 0 -8 5 -11
10 -3 6 -1 10 4 10 6 0 11 -4 11 -10z m2910 -244 c0 -3 -4 -8 -10 -11 -5 -3
-10 -1 -10 4 0 6 5 11 10 11 6 0 10 -2 10 -4z m-2065 -146 c3 -6 -1 -7 -9 -4
-18 7 -21 14 -7 14 6 0 13 -4 16 -10z m489 -88 c3 -5 -1 -9 -9 -9 -8 0 -12 4
-9 9 3 4 7 8 9 8 2 0 6 -4 9 -8z"/>
<path d="M4181 5774 c0 -11 3 -14 6 -6 3 7 2 16 -1 19 -3 4 -6 -2 -5 -13z"/>
<path d="M1440 5579 c0 -5 5 -7 10 -4 6 3 10 8 10 11 0 2 -4 4 -10 4 -5 0 -10
-5 -10 -11z"/>
<path d="M970 5235 c-14 -8 -20 -14 -14 -15 5 0 19 7 30 15 24 18 16 19 -16 0z"/>
<path d="M280 4309 c0 -5 5 -7 10 -4 6 3 10 8 10 11 0 2 -4 4 -10 4 -5 0 -10
-5 -10 -11z"/>
<path d="M10 3500 c0 -6 7 -10 15 -10 19 0 19 6 0 14 -8 3 -15 1 -15 -4z"/>
<path d="M5105 849 c-4 -6 -5 -12 -2 -15 2 -3 7 2 10 11 7 17 1 20 -8 4z"/>
<path d="M4815 600 c-3 -5 -1 -10 4 -10 6 0 11 5 11 10 0 6 -2 10 -4 10 -3 0
-8 -4 -11 -10z"/>
<path d="M3636 52 c-3 -5 1 -9 9 -9 8 0 12 4 9 9 -3 4 -7 8 -9 8 -2 0 -6 -4
-9 -8z"/>
</g>
</svg>
