<svg xmlns="http://www.w3.org/2000/svg" width="800" height="800" version="1.0" viewBox="0 0 600 600"><path d="M261.5.9c.6 1.1.4 1.3-.8.8-.9-.3-1.9-.2-2.2.3-.8 1.4-5.2 1.2-6.1-.1-.5-.8-1.3-.4-2.6 1.2-1.1 1.3-1.7 1.8-1.3 1.1.7-1.3-2.8-1.2-4.1.1-1.2 1.2-3.6.8-2.8-.5.4-.7.3-.8-.5-.4-.6.4-.9 1.2-.6 1.7.4.5.2.9-.4.9-.5 0-1.3-.5-1.7-1.2-.5-.7-1.1-.5-2.1.7-.7 1.1-1.3 1.3-1.3.6 0-.9-.5-.7-1.6.4-1.2 1.2-2 1.3-2.9.5-1-.8-1.6-.7-2.4.7-.7 1.3-1 1.4-1.1.4 0-1.1-.4-1-1.6.5-.8 1-1.3 1.3-.9.6.3-.6.1-1.2-.4-1.2-.6 0-1.1.5-1.1 1.1 0 .8-.6.7-1.7-.2-1.1-1-1.4-1-.9-.2.7 1.3-.4 1.7-3.3 1.4-.7-.2-1 .2-.6.9.5.9.1 1-1.4.5-1.4-.4-2.1-.2-2.1.7 0 1-.3.9-1-.2-.6-1-1-1.1-1-.3 0 .7-.9 1.3-2.1 1.3-1.3 0-1.8.4-1.3 1.2.4.7.4 1-.1.6-.4-.4-1.6-.3-2.6.3-1.5.8-1.9.6-2-.8 0-1.4-.2-1.3-.9.4-.8 2.1-3.8 3-7.4 2.4-.5-.1-.6.5-.2 1.4.4 1.1.2 1.4-.7.8-.6-.4-1.8-.8-2.5-.9-1.1-.2-1.1 0 0 1.4.8 1 .9 1.3.1.9-.6-.4-1.4-.3-1.8.3s-1.1.8-1.6.4c-.5-.3-1.7 0-2.6.8-1.5 1.1-1.6 1.1-1-.5.4-1.1.3-1.6-.3-1.2-.6.3-1 1.3-1 2 0 .9-.6 1.2-1.5.9-.8-.4-1.7.1-2.1 1-.3.9-1 1.6-1.6 1.6-.5 0-.7-.4-.3-.9.3-.5 0-1.3-.6-1.7-.8-.4-.9-.3-.5.4s.2 1.2-.4 1.2c-.7 0-.9.7-.6 1.6.5 1.4.4 1.5-.9.4-1.1-.9-1.5-.9-1.5-.1 0 .7-.4.9-1 .6-.5-.3-1-.1-1 .5 0 .7-.7 1-1.5.6-1-.3-1.5.1-1.6 1.2 0 1-.3 1.2-.6.4-.2-.6-1-1.2-1.6-1.2-.5 0-.8.3-.4.6.3.3-.2 1.4-1.1 2.4-1.2 1.5-1.9 1.7-2.9.8-.8-.6-1.3-.7-1.2-.2.4 2.1-.2 2.8-1.1 1.4-.7-1.1-1-1.1-1-.2 0 .7-.4 1-1 .7s-.7.1-.4 1c.5 1.3.2 1.4-2.2.5-2.8-1-2.8-.9-.9.6 2 1.6 2 1.6-.2 1.1-1.6-.4-2.4.1-2.9 1.5-.4 1.4-.9 1.7-1.4.9s-1.2-.4-2.4 1.3c-.9 1.4-2.6 2.6-3.7 2.6s-1.8.4-1.5.8-.7.8-2.2.8c-1.8-.1-3 .6-3.6 2-.5 1.2-1.9 2.7-3 3.4-2.1 1.3-2.1 1.3-.2-.9 1.7-1.8 1.7-2.1.3-1.5-.9.3-1.7.9-1.7 1.3s-.7 1.6-1.6 2.7c-.8 1-1.3 1.3-.9.6.3-.6.1-1.2-.4-1.2-.6 0-1.2.4-1.2 1-.1.5-.2 1.4-.3 1.9 0 .5-.5 1.3-1 1.8s-.6.2-.1-.6q.75-1.35-.6-.9c-.8.3-1.3 1.1-1.1 1.7.2.9-.3.9-1.9 0-1.5-.8-1.9-.8-1.5 0 .4.6.1 1.1-.6 1.1-.9 0-.9.3.2 1 1.3.8 1.2 1-.2 1-1 0-1.8.4-1.8.9s-.7 1.2-1.6 1.5c-1.2.5-1.4.3-.8-.7.5-.7.1-.4-1 .8-1 1.1-2.3 1.9-2.9 1.7s-.4.5.4 1.4c1.3 1.6 1.2 1.6-.8.5-1.9-1-2.2-.9-1.7.4.4 1-.3 1.8-2 2.5-1.5.5-2.9 1.7-3.2 2.5-.4.8-1 1.5-1.6 1.5-.5 0-.6-.5-.2-1.2s.3-.8-.5-.4c-.6.4-.9 1.2-.6 1.7.6.8-1.5 3.1-5.9 6.7-.9.7-2.2 1-2.9.6-.7-.5-.7-.1.2 1 .8.9 1 1.6.5 1.5-2.2-.4-3.4.2-3.4 1.7 0 .8-.4 1.3-1 .9-.5-.3-1.6.8-2.5 2.5-1 2-2.2 3-3 2.6-1-.3-1.2 0-.8 1.1.5 1.3.2 1.5-1.2 1-1.6-.7-1.6-.5-.4 1 .8.9.9 1.4.3 1-.6-.3-2 .1-3 .9-1 .9-1.4 1.3-.8 1s1.1.1 1.1.8c0 .8-.7 1.2-1.5.8-.9-.3-1.3-.1-.9.5s-.3 1.3-1.4 1.6c-1.5.4-2 1.1-1.5 2.2.3.9.2 1.3-.4 1s-1-.1-1 .4c0 .6-.3 1-.7 1-2-.3-2.6.2-1.3 1.1 1.3.8 1.3 1-.2 1-.9 0-2 .5-2.4 1.2q-.75 1.05.6.3t.6.3c-.4.7-1.4 1.2-2.2 1.2s-1.4.5-1.4 1.1c0 .5.6.7 1.3.4.6-.4.3.1-.8 1s-1.9 2.1-1.7 2.7c.2.7-.4.6-1.3-.2-.9-.7-1.5-.9-1.4-.4.4 2.5-.2 4.5-1.3 3.8-.8-.5-.9-.2-.5 1 .4 1.1.3 1.5-.4 1.1-.6-.4-1.3.2-1.6 1.4-.3 1.1-.9 1.8-1.4 1.5-.8-.5-1.4 1.8-1 3.9.1.5-.3.6-.9.2-.5-.3-1 .1-1 1s-.4 1.3-1 1c-.5-.3-1 .1-1 .9 0 .9-.4 1.6-1 1.6-.5 0-1 .7-1 1.5s-.5 1.5-1.1 1.5c-.5 0-.8.4-.5.9s-.1 1.2-1 1.5c-.9.4-1.4.9-1.1 1.3 1.1 1-1.3 4.4-2.6 3.6-.7-.4-.7 0 .2 1 1.2 1.5 1.1 1.7-.3 1.7-.9 0-1.6.7-1.6 1.5 0 .9-.7 1.8-1.5 2.1-1.3.5-1.3.9-.3 2.2 1 1.2 1 1.4.1.8-.8-.4-1.3-.2-1.3.4s-.5.8-1.2.4c-.9-.5-.9-.2.1.9 1.2 1.5 1.1 1.7-.3 1.7-1 0-1.4.4-1.1 1 .3.5.1 1-.6 1-.8 0-.8.4.1 1.5 1.1 1.3 1 1.4-.5.9-1.5-.6-1.7-.3-1.3 1.4.3 1.2.3 2.1-.1 2-1.9-.2-2.4.3-1.1 1.2 1.3.8 1.3 1-.2 1-.9 0-2 .5-2.4 1.2-.4.6-.3.8.3.5 2.1-1.3.8 2.6-1.4 4-1.7 1.2-2.1 1.9-1.3 2.8.8 1 .5 1.7-1.1 2.9-2.1 1.5-3.8 5.3-1.8 4 .5-.3.6-1 .3-1.6-.5-.7-.2-.8.5-.4.9.6.9 1.2-.3 2.5-.9 1-1.3 2-1 2.3s-.2.5-1.2.4c-1 0-1.8.7-1.9 1.9-.1 1.1-.6 2.9-1 3.9-.7 1.5-.5 1.8.6 1.2.8-.4.5 0-.5.8-1.1.9-1.6 1.6-1.1 1.6s.4.5-.3 1.2-1.2 2-1.2 3.1c0 1.2-.4 1.6-1.2 1.1s-.7 0 .2 1.1c1.4 1.7 1.3 1.8-.3 1.2-1.5-.5-1.6-.3-.7 1.2.7 1.4.6 2-.4 2.4-.9.3-1.3 1.6-1.2 3.1.2 1.8-.2 2.6-1.3 2.6-1.4 0-1.4.2-.1 1 1.3.9 1.3 1 0 1-.9 0-1.1.3-.5.8.6.4 1.1 1.3 1.3 2.1.3 1.2 0 1.2-1.2.2-1.3-1.1-1.5-1-1.1.8.2 1.2.7 2.7 1.1 3.4.5.7 0 .6-1.2-.3-1-.8-1.6-1.1-1.2-.6s.3 1.8-.3 2.9c-.8 1.4-.8 1.8 0 1.3 1.8-1.1 1.3.5-.6 2.1-1.7 1.4-1.7 1.4.1.8 2-.6 2-.6 0 1.6-1.2 1.5-1.4 2-.4 1.5s1-.3-.2.6c-1.2 1.1-1.4 1.8-.6 3.2q1.05 1.95 0 1.2c-.6-.3-1.3-.2-1.7.4-.3.5-.1 1 .5 1 .7 0 .8.6 0 1.9-1.3 2.6-1.3 3.4.3 2.6.6-.4.2.2-1.1 1.2-2.1 1.7-2.1 2-.7 4 1.4 1.9 1.4 2.2.1 1.7-1.5-.6-1.7 1.8-.3 3.2.3.4-.3 2-1.5 3.7s-1.7 2.7-1 2.3c1.6-1 1.5.6 0 2.3-1.1 1.1-1 1.3.2.7.8-.4.6 0-.4.8C0 260.7 0 261 1.1 261c.9 0 1.6.6 1.6 1.4 0 .9-.6 1.2-1.6.8-1.4-.5-1.4-.3-.2 1.1.7.9 1 1.7.5 1.7-1.4 0-1.4 5.4-.1 6.2.9.6.9.8 0 .8S.1 279.8.2 300.5c.1 18 .4 27.2 1.1 26.8.6-.4.7-.1.2.7-1.2 1.9-1.3 6-.1 6.7.5.4.6.1.1-.7s-.4-1.1.2-.7c1.1.7 1.1 3.6-.1 5.5-.7 1.1-.1 1.6 1.7 1.3.5-.1.6.3.2.9-.3.6-1.1.8-1.6.5-.5-.4-.9-.1-.9.4 0 .6.5 1.1 1.1 1.1.8 0 .7.6-.2 1.7-1.2 1.5-1.2 1.6.3 1 1.4-.5 1.6 0 1.3 3.4-.4 3.1-.1 3.9 1.3 4 1.4 0 1.4.2-.3.9-1.1.5-1.4.9-.6.9 1 .1 1.1.4.2 1.5s-.9 1.6 0 2.2c.8.5 1 .3.4-.7-.6-1.1-.5-1.2.5-.2 1.1 1 1.1 1.5 0 2.8-.7.8-1 1.8-.6 2.2.3.3.6.1.6-.6s.5-.9 1-.6c.7.4.7 1.2 0 2.5-1.2 2.3-1.3 4-.1 2.2.6-1 1-.9 1.4.7.3 1.4.1 1.9-.6 1.4-.7-.3-.3.4.8 1.6 1.6 1.9 1.7 2.4.5 3.1-1 .7-1.1 1-.2 1 .7 0 1.2 1.3 1.2 3.1 0 1.6.4 2.8.9 2.4.5-.3.9.9.8 2.7-.1 2 .3 3.2 1 3.1.6-.1 1 1 .9 2.7s.2 3 .7 3c.4 0 .5.4.2 1-.3.5 0 1 .7 1 .9 0 .9.3-.2 1-1.2.8-1.2 1 .5 1s1.7.2.5 1c-1.3.9-1.3 1 0 1s1.3.1 0 1-1.3 1 0 1.1c.8.1 1.9.1 2.3 0 .5-.1.6.3.2.9-.3.5-.3 1.6.2 2.2 1 1.7 1.3 3.9.4 3.4-.4-.3-.7.4-.7 1.4 0 1.4.4 1.6 1.2.9s1.4-.6 1.9.1c.3.5.1 1-.4 1-.6 0-1.1.5-1.1 1.1 0 .5.5.7 1 .4.6-.4 1 .5 1 2 0 1.4.4 2.4.8 2.1.5-.3.8.5.7 1.7-.3 2.9 1.3 5.9 2.7 5.1.6-.4.8.1.4 1.4-.5 1.5-.1 2.1 1.5 2.5 1.9.5 2 .8.9 2.1-.9 1.2-.9 1.6-.1 1.6.7 0 .9.5.5 1.2-.5.8-.2.9 1.1.4 1.5-.5 1.6-.4.5.9-1 1.2-1 1.5 0 1.5.8 0 1 .3.7.7-.4.3 0 1.7.8 3 .9 1.3 1.2 2.3.8 2.3-.3 0 .3 1 1.5 2.3s1.9 2.8 1.5 3.2c-.5.5 0 .3.9-.4 2.2-1.7 2.3-.8.2 1.3-1.4 1.5-1.4 1.6 0 1.6.9 0 1.6.4 1.6 1 0 .5.8 1 1.8 1s1.3.3.6.8c-1.3.8-1.5 4.4-.2 3.6.5-.3.5-1.1.2-1.7-.4-.7-.3-.8.2-.4.5.5.9 1.6 1 2.5.1 2.3 1.5 5.3 2.3 4.9.3-.2 1.5.5 2.5 1.6 1.6 1.7 1.7 1.9.3 1.4-.9-.3-1.7-.2-1.7.3 0 .6.7 1 1.6 1 .8 0 1.3.4.9.9-.3.5.4 1.2 1.5 1.6s1.8 1 1.5 1.5c-.8 1.2.6 4.1 1.6 3.4.5-.3.9.2.9 1 0 .9.4 1.6 1 1.6.5 0 .9.3.9.8-.3 1.9.2 3.3 1.1 2.7.6-.3 1 .1 1 1 0 1 .5 1.3 1.2.9.8-.5.9-.2.5.9s-.1 1.7.9 1.7c.8 0 1.3.4 1 .9s.1 1.1.9 1.5c.8.3 1.5 1.2 1.5 2.1 0 .8.6 1.5 1.4 1.5s1.8.5 2.2 1.2.3.8-.4.4c-.8-.5-1-.1-.6.9.4.9 1.3 1.4 2 1.1.8-.3 1.3-.2 1.3.2-.4 2.1.2 4.2 1.2 4.2.5 0 .7-.5.3-1.2s-.3-.8.4-.4c.6.4.8 1.4.5 2.3-.4 1.1-.3 1.4.5.9.7-.4 1.2-.1 1.2.7s.7 1.8 1.6 2.1c.8.3 1.2 1.1.8 1.7-.4.8-.3.9.4.5s1.2-.2 1.2.4.4.9.9.6 1.2.6 1.5 2c.6 2.2.9 2.4 2.3 1.2 1.4-1.1 1.5-1 .9 1-.5 1.4-.3 2.2.4 2.2.6 0 2.1 1 3.3 2.1 1.2 1.2 1.5 1.8.7 1.4-1.3-.8-1.3-.6-.2.7.8 1 2 1.4 3 1.1 1.5-.6 1.6-.5.2 1.2-.9 1.1-1 1.6-.3 1.1.8-.4 1.3-.2 1.3.5s.3 1 .6.6c.8-.8 3.3 1.6 2.7 2.5-.2.5.1.8.6.8.6 0 2.4 1.4 3.9 3 1.6 1.7 3.5 3 4.1 3 .7 0 .9.4.6 1-.6.9.8 1.4 2.8 1.1.5-.1.6.3.2.9-.3.5-.1 1 .5 1s.8.5.4 1.2c-.6 1-.5 1 .8.1 1.8-1.5 2.9-.7 2.1 1.5-.5 1.1-.2 1.4 1 .9 1.2-.4 1.7-.1 1.7.9 0 1.1.6 1.4 1.6 1 .8-.3 1.3-.2 1.1.2-.6.9 1.9 3.3 2.7 2.5.3-.4.6.2.6 1.3 0 1.6.2 1.7 1 .4s1-1.3 1 .2 3.4 3.5 5.2 3c.4-.1.4.6.1 1.5-.5 1.3-.2 1.5 1.1 1 1.4-.6 1.7-.3 1.2.9-.6 1.5-.4 1.5 1.1.3s1.6-1.2 1 .3c-.5 1.6.5 3 2.6 3.4.4.1.9.3 1.2.4s1.1.3 1.8.4c.6.1 1.1.8.9 1.4-.2 1 .3 1 1.7.2 1.6-.8 2.1-.6 2.6 1 .3 1.1 1.3 2 2.1 2s1.4.4 1.4 1c0 .5.5 1 1.1 1s1.7.7 2.5 1.5 2.2 1.1 3.1.8c1.1-.4 1.4-.3.9.5-.7 1.1.7 1.6 4.1 1.5.7-.1 1.1.3.8.7-.3.5.4 1.1 1.5 1.5s1.8 1.1 1.4 1.6c-.3.5-.2.8.3.7.4-.1 1.8.3 2.9 1 1.2.6 2.4.8 2.8.5.3-.3.6 0 .6.8 0 1.1.2 1.1 1-.1.9-1.3 1-1.3 1.1 0 .1.8.1 1.8 0 2.2 0 .5.4.8.9.8.6 0 1-.5 1-1 0-.6.5-1 1.1-1 .5 0 .8.4.5.8-.3.5 1.1 1.4 3 2.1 1.8.7 3.4 1.8 3.4 2.4 0 .7.4.6 1-.3.6-1 1-1.1 1-.3 0 .7.9 1.3 2.1 1.3 2.2 0 5.2 2.4 4.2 3.4-.4.3-.3.6.2.6.4 0 1.4-.8 2.1-1.8 1.3-1.6 1.4-1.6.7.2-.5 1.6-.3 1.8 1.6 1.3 1.4-.3 2.4 0 2.7.8s1.2 1.1 2 .8c.7-.3 1.7.2 2 1.1.8 2.2 2.5 2 1.9-.1-.3-1 .1-.5.9 1.2 1.1 2.2 1.5 2.5 1.6 1.1 0-1.5.3-1.6 1.5-.6.9.7 1.8 1 2.1.7.4-.3 1.5.4 2.5 1.6 1.4 1.8 2 2 3.1.9s1-1.2-.3-.7c-1 .4-1.9.2-2.3-.3-.3-.5.5-.8 1.7-.7s2.1.6 2 1.1c-.3 1.6 4 3.4 5.4 2.2.9-.7 1.3-.7 1.3 0s.7.9 1.7.5 1.4-.2.9.5c-.4.6.1 1.1 1.1 1.1 1-.1 2.8.2 4.1.6 1.5.5 2.2.3 2.3-.6 0-.8.4-.4.9.8.9 2.1 3.3 2.5 5.9.8.5-.3 1.3 0 1.7.6.5.8.3.9-.6.4q-1.35-.75-.6.3c.4.8 1.5.8 3.1.2s2.7-.6 3.1.2c.5.7.3.8-.6.3s-1.1-.4-.6.4c.6.9 1.1.9 2.4-.1.9-.8 1.3-.8.9-.2-.5.8.5 1.1 3.3 1 2.2-.1 4 .1 4 .6 0 .4.7.4 1.7.1 1.2-.5 1.4-.3.8.7-.5.8-.4 1.1.3.6.5-.3 1.2-.3 1.5.1.2.5.3.3.1-.3-.1-.7 1-1.1 2.7-1 1.7 0 2.7.6 2.5 1.2-.5 1.2 9.4 1.1 11.4-.1q1.35-.75.6.3c-.5.8.1 1.2 1.4 1.2 1.4 0 1.9-.4 1.4-1.3-.6-.9-.5-.9.7 0 1.1.9 7.9 1.2 25 1.1 12.9 0 23.9-.3 24.4-.6 1.5-.9 3.6-1.1 3.1-.3-.3.4.4.8 1.5.8 1 .1 1.9-.3 1.9-.8 0-.6-.5-.7-1.2-.3s-.8.3-.4-.4c.5-.9 1.4-.7 3.2.5 1.4.9 2.4 1.2 2.3.7-.4-2.1.2-2.8 1.1-1.4.9 1.3 1 1.3 1 0 0-1.2.2-1.2.8-.2.5.7 1.6 1 2.5.6.9-.3 1.4-1 1.1-1.5s.2-.6 1-.3c.9.3 1.3 1.1 1 1.8-.3.6.3 0 1.4-1.3 1.4-1.8 2.1-2.1 2.7-1.1.5.8.4 1.1-.2.7-.5-.3-1 0-1 .8 0 1 .4 1.2 1.2.5.7-.5 1.6-.6 2-.2.5.4.5.2.1-.5-.3-.6-.2-1.4.4-1.8.5-.3 1-.1 1 .6s.7.4 1.5-.7c.8-1 1.5-1.5 1.4-.9-.3 2.4.2 2.7 1.7.9.8-1 1.3-1.3.9-.7-.4.9-.1 1.1.9.7.9-.3 1.4-1 1.1-1.4-.2-.4.9-.6 2.5-.4 1.7.2 3-.1 3-.7 0-.7.6-.6 1.7.2 1.5 1.2 1.6 1.2 1-.5-.6-1.6-.5-1.7.8-.6 1.2 1 1.5 1 1.5-.1 0-1.2.2-1.2.9-.1.6 1.1 1 1 1.5-.3.5-1.4.9-1.5 2.1-.5s1.5.9 1.5-.6c0-1.7.1-1.7 1.5.2 1.2 1.5 1.4 1.6.9.2-.4-1.3-.1-1.6 1.5-1.3 1.2.2 2.1-.1 2.1-.6 0-.6.7-.6 1.9.1 2.9 1.5 3.8 1.2 1.5-.5-1.8-1.3-1.8-1.4.5-.8 1.7.4 2.2.3 1.7-.5-.4-.7-.2-1.2.3-1.2.6 0 1.1.4 1.1.8 0 .5.7.9 1.5.9 1.1 0 1.2-.4.3-1.4-.9-1.1-.7-1.2.7-.7 1.3.5 1.6.4 1-.5-.6-1-.3-1.1 1.4-.2 1.3.7 2.1.8 2.1.2s.6-.8 1.4-.5 1.7 0 2.2-.7c.4-.7.3-1-.4-.5-.6.3-1.3.2-1.7-.3-.3-.6.4-.8 1.6-.6 1.3.3 2.9-.1 3.8-.8 1.2-.9 1.3-.9.7 0-.5.9-.2 1.1.8.7.9-.3 1.3-1.1.9-1.8-.4-.6.2-.4 1.2.4 1.5 1.2 1.7 1.2 1 .1-.6-1.1-.4-1.3 1-.7 1.5.5 1.6.4.5-.9-1.1-1.4-1-1.4 1.4-.5 1.5.5 2.5.6 2.1.1-.3-.5-.1-1.2.5-1.6.5-.3 1 0 1 .7.1.7.7.2 1.5-1.2s1.4-2 1.5-1.4c0 .6.9 1 1.9.9 2.2-.1 5.3-2.4 4.7-3.4-.3-.4.8-.6 2.4-.5 1.7.1 3.5-.5 4.2-1.5 1.2-1.4 1.1-1.5-.4-.2-1 .7-1.8.9-1.8.3 0-1.5 2.6-2.2 3.8-1 .6.6 1.2.6 1.7-.3.6-.8.4-1-.6-.4-1.2.8-1.2.6 0-.9 1.1-1.3 1.6-1.4 2.2-.4.8 1.2 1.3.4 1-1.4 0-.3 1.3-.9 2.9-1.3 1.7-.4 3-1.2 3-1.8 0-.7.4-.6 1 .3.8 1.3 1 1.3 1-.1 0-1 .7-1.6 1.8-1.5 1 0 1.6-.6 1.6-1.6-.1-1 .3-1.5.9-1.1.5.3 1.7-.3 2.5-1.3 1.4-1.9 1.5-1.9.8 0s-.6 1.9 1.3.2c1.2-1.1 2.5-1.5 3.3-1 1.1.6 1.1.5 0-.8-1-1.3-1-1.8-.1-2.4.8-.4.9-.3.5.4-1.1 1.8.4 1.4 2.2-.6 1-1 1.3-1.2.8-.5-.6 1-.5 1.2.5.8.8-.3 2.3-1.8 3.3-3.3s1.5-1.9 1.2-1c-.3 1.2-.1 1.5 1 1.1.8-.3 1.3-1.2 1-2s-.1-1.1.4-.8c.6.3 1.3-.1 1.6-1 .5-1.2 1-1.3 2-.4 1 .8 1.2.6.9-1-.3-1.8-.1-2 1.5-1.1 1.6.8 1.8.8 1.4-.5-.4-.9 0-1.5 1-1.5 1.6 0 4.2-3.8 3.8-5.4-.2-.5.4-.3 1.3.4 1.5 1.2 1.8 1.2 2.6-.2.5-.9 2-1.8 3.3-2.2 1.3-.3 2.7-1.3 3-2.3.6-1.6.6-1.6-1.2 0-1 .9-2.2 1.7-2.7 1.7-.4 0 .4-.9 1.8-2s3-2 3.7-2c.6 0 .9-.4.6-.9-.4-.5.4-.7 1.6-.4 1.7.3 1.9.2.9-.5-1.1-.8-.9-1.1.8-1.7 1.4-.4 2-1.2 1.7-2.1s-.1-1.2.4-.9c.6.3 1 0 1-.7 0-1.1.2-1 .9 0 .6 1 1 .9 1.4-.7.3-1.2 1.2-2.1 2.1-2.1s1.6-.7 1.6-1.5.7-1.5 1.6-1.5c.8 0 1.3-.4 1-.9-.9-1.5 5.4-5.8 7.7-5.2.5.1.6-.3.2-.8-.3-.6-1.3-.8-2.3-.5-1.5.5-1.5.5.1-.6.9-.6 2.2-.8 2.7-.5.6.3.7-.1.4-.9-.4-1.1 0-1.6 1.1-1.6.9 0 1.3-.5 1-1-.3-.6.1-1 .9-1 .9 0 1.6-.5 1.6-1.1 0-.5-.5-.7-1.2-.3s-.8.3-.4-.4c.4-.6 1.3-.9 2-.6.8.3 1.7 0 2.2-.7.5-.8.3-1-.7-.5-.8.4-.3-.2 1.1-1.4s1.9-1.8 1.1-1.4c-.9.5-1.2.3-.7-.4.4-.7 1.4-1.2 2.3-1.2 1 0 1.3-.6.9-1.6-.3-.8-.2-1.2.4-.9s1 .1 1-.5.5-.8 1.2-.4c.8.5.9.2.5-1-.5-1.3-.3-1.7.6-1.3.8.3 1.4-.3 1.4-1.6.1-1.1.7-2.5 1.4-3.1.9-.8 1-.7.4.4-.4.8.4.4 1.7-1 1.4-1.4 2.3-2.8 2.1-3.3-.2-.4.1-.7.6-.7.6 0 1-.6.8-1.3-.1-.6.4-1.1 1.1-1 .6.2 1.2-.4 1.2-1.2 0-.7.6-1.8 1.3-2.2.6-.4 1.2-1.5 1.2-2.3s.6-1.4 1.3-1.2c.7.1 1.2-.4 1-1.2-.2-.7.6-2.2 1.7-3.2 1.2-1.1 1.4-1.5.5-.9-1.3.8-1.3.8-.3-.6.7-.9 1-1.9.6-2.3s.1-.4 1.2 0c1.5.6 1.7.4 1.2-1-.4-1-.3-1.5.3-1.1.6.3 1 .1 1-.5s.5-.8 1.3-.4c.9.6.9.4-.1-.8-1.1-1.4-.9-1.9 1-3.2 1.3-.9 2.4-2.1 2.4-2.6.1-.6.2-1.8.3-2.8.1-1.5.3-1.5 1.1-.2.8 1.2 1 1.1 1-.6 0-1.2.9-3.1 2-4.4q2.1-2.4.9-3c-.6-.4-.1-1 1.3-1.4s1.8-.9 1.1-1.3c-1.8-.7-1.6-2.6.1-2 .8.3 1.7-.1 2-.9.4-1 .1-1.3-.7-.9-.6.4-.5.1.4-.7.9-.7 1.4-1.9 1.1-2.7s0-1.1.7-.7c.7.5.9.1.5-.8-.4-1.1 0-1.6 1.2-1.6 1.6 0 1.7-.2.4-1-1.1-.7-1.1-1-.2-1 .7 0 1-.5.7-1-.3-.6-.1-1 .6-1 .8 0 .8-.4-.1-1.5-1.1-1.3-1-1.4.6-.9 1 .4 1.6.4 1.2 0-.4-.5.1-1.7 1.1-2.7 1-1.1 1.7-3.1 1.5-4.5-.2-2 .1-2.4 1.3-2 1.3.5 1.4.4.3-.9-.9-1.1-.9-1.5-.1-1.5.7 0 .9-.4.6-1-.3-.5-.1-1 .5-1s.9-.4.5-.9c-.3-.5.2-1.6 1-2.4 1.6-1.7 2.1-3.2.7-2.3-.5.3-.9-.1-.9-.9s.3-1.2.7-1c.3.2 1.2-.5 1.9-1.7.7-1.1.8-1.7.2-1.3-.6.3-1.1.1-1.1-.4 0-.6.3-1.1.8-1.1.4 0 1.2-1.1 1.9-2.5.6-1.4.7-2.3.2-1.9-.5.3-.9.1-.9-.4 0-.6.7-1.3 1.5-1.6 1.3-.4 1.4-1 .5-2.6-.9-1.7-.8-1.9.7-1.3 1.6.6 1.7.5.3-1.2s-1.3-1.8.5-1.1c1.1.4 1.6.4 1.2 0s-.1-1.4.6-2.3c1.1-1.4 1-1.4-.6-.2-1.7 1.3-1.7 1.3-.6-1.2.7-1.5 1.7-2.3 2.3-2 .6.4.5 0-.2-.9-.8-1-.9-1.7-.2-2 .5-.1 1.2-1.3 1.5-2.6.2-1.2.1-2-.3-1.8s-.8-.4-.8-1.4c0-1.2.5-1.6 1.6-1.2 1.3.5 1.3.3.1-1.1-1.2-1.5-.9-2.1 1-1.9.3.1.6-.5.6-1.3s-.5-1.1-1.1-.8-.5 0 .2-.8c.6-.7 1.2-2.6 1.2-4.2 0-2 .4-2.6 1.3-2.1.8.5.8.2-.2-.9-1.1-1.4-1.1-1.7 0-1.7s1.1-.2-.1-1c-1.3-.8-1.3-1-.1-1 1.1 0 .9-.4-.5-1.5-1.6-1.3-1.6-1.4-.1-.9s1.7-.1 1.7-4.6c0-3.8.3-4.9 1.3-4.4.6.4.9.4.5-.1-.4-.4-.3-1.4.4-2.2.9-1.1.7-1.2-.8-.6-1.7.6-1.8.5-.4-1.1 1.8-2.3 2.1-4.5.8-6.9-.7-1.4-.7-1.7 0-1.3 1.4.8 1.4-61.1 0-63.7-.6-1.1-.5-1.7.3-1.7s.8-.5-.2-1.6c-1.4-1.7-2-5.6-.7-4.8.4.3.8 0 .8-.5 0-.6-.5-1.1-1.2-1.1-.9 0-.9-.3 0-1.2.7-.7 1.2-1.7 1.2-2.2 0-.6-.4-.5-.9.2-.6 1-1 .7-1.3-1.2-.3-1.4-.2-2.3.3-2.1.4.3 1.1 0 1.5-.6.4-.8.3-.9-.4-.5-.8.5-1.2 0-1.2-1.3 0-1.2-.5-2.1-1.2-2.1-.9 0-.9-.3-.1-1.1 1.3-1.3.6-4.2-.7-3.4-.5.3-1.2 0-1.6-.6-.4-.8-.3-.9.4-.5s1.3.1 1.3-.6c.2-2.4-.3-4.3-1.3-4.9-.7-.4-.6-.9.1-1.3.6-.4 1.1-1.3 1.1-1.9 0-.9-.2-.9-.8-.1-.5.9-1.1.8-2-.2-1.1-1.2-1-1.4.5-1.4s1.6-.2.3-1c-1.3-.9-1.3-1 0-1 1.2-.1 1.1-.3-.2-1.1-1.2-.6-1.8-2.2-1.8-4.4 0-2.1-.5-3.5-1.2-3.5-.9 0-.8-.4.2-1 1.3-.8 1.2-1-.2-1-1 0-1.8-.5-1.8-1.1 0-.5.4-.7 1-.4s.7-.1.4-.9c-.3-.9-1.1-1.6-1.8-1.7-.6 0-.2-.4.9-.9 2-.8 2-.9-.1-.9-1.7-.1-2-.6-1.6-2.8.4-2.1.2-2.5-1.1-2-1.1.4-1.4.2-1-.8.3-.8 1-1.2 1.7-.8.6.4.3-.5-.7-2s-1.5-3.3-1.1-3.9c.5-.7.2-.9-.8-.6-1 .4-1.5 0-1.5-1 0-3.9-.4-5.2-1.4-5.2-.5 0-.7.6-.3 1.2.4.7.3.9-.1.5-1.6-1.4-1.4-3.6.3-3 1.5.4 1.5.3 0-1-1-.8-1.8-2.2-1.8-3.1 0-1.1-.4-1.5-1.2-1-.9.5-.9.2.1-.9 1-1.3 1-1.7.1-1.7-.7 0-1-.7-.7-1.4.4-1.1.1-1.3-1.1-.9-1.5.6-1.6.5-.2-1.2.8-1 1-1.6.4-1.2-.7.4-1.4-.4-1.7-2.2-.3-1.6-1.3-3.6-2.2-4.4-.8-.9-1.5-2.5-1.5-3.6s-.5-2.3-1.2-2.7q-1.05-.75-.3.6c.5.8.4 1.1-.3.7-.5-.4-.8-1.6-.5-2.7s0-2-.6-2-1.1-.7-1.1-1.5-.5-1.5-1.1-1.5c-.5 0-.9-1-.7-2.3s-.2-2.1-.9-1.9c-.7.1-1.3-.7-1.3-1.8s-.5-2-1.1-2-.9-.7-.6-1.5c.4-.8-.5-2.3-2.1-3.6-1.5-1.1-2.5-2.3-2.3-2.6.7-.9-2.2-4.2-3.2-3.6-.5.3-.4-.4.2-1.4 1.2-2.4.5-3.4-1.7-2.6-1 .4-1.3.2-.8-.5.3-.6.1-1.4-.5-1.7-.5-.4-.8-1.3-.5-2 .3-.9-.2-1.1-1.7-.8-1.8.4-1.9.3-.7-.6.8-.6 1-1.1.4-1.1-.7 0-1.4-.9-1.7-2-.4-1.4-1-1.8-2.4-1.4-1.6.6-1.6.5.2-1 1.7-1.4 1.7-1.5.2-1-1 .4-1.7.2-1.5-.3.2-.6-.6-1.9-1.7-2.9-1.2-1.1-1.4-1.5-.5-1 .8.5-.1-.6-2.1-2.5-1.9-1.9-2.7-2.8-1.7-2 1.6 1.2 1.6 1.2.5-1.2-.6-1.4-1.4-2.5-1.7-2.5-1.8.1-3-.3-3-1.3 0-.5.5-.7 1.2-.3s.8.3.4-.4c-.4-.6-1.3-.9-2.2-.5-.9.3-1.4 0-1.2-.8s-.3-1.3-1-1.1c-.9.2-1.1-.4-.7-1.8.5-1.6.3-1.9-1.1-1.3-1.3.5-1.5.3-.9-.7s.4-1.2-1-.6c-1.6.6-1.6.4-.4-1.1.8-.9.9-1.4.2-1s-1.4-.1-1.8-1.3c-.5-1.7-1-1.9-2.1-.9-1.7 1.4-1.9-.2-.1-2 1-1.1 1-1.3 0-.7-.7.4-1.3.2-1.3-.4 0-.7-.7-.9-1.5-.6-1.1.4-1.5 0-1.3-1.2.2-1.1-.3-1.7-1.5-1.6-1.4.2-1.5-.1-.6-1.2.8-1 .6-1.2-1-.9-1.3.2-1.9 0-1.5-.6.3-.6-.2-1.7-1.2-2.5-1.1-.9-1.3-1.3-.7-.9.9.4 1.1.1.6-1.1-.4-1.1-.8-1.3-1.1-.6-.2.7-.8 1.2-1.4 1.2s-.8-.6-.5-1.4c.4-1 0-1.4-1.3-1.1-1.1.2-1.9.1-1.9-.3.3-2.1-.4-3-2.6-3.6-1.4-.4-2.5-1.1-2.5-1.7s.5-.7 1-.4c.6.3 1 .1 1-.6 0-.6-.8-.9-2-.6-1.8.5-2.5-.4-2.1-2.6.1-.5-.2-.6-.6-.4-1.1.7-5.2-1.6-5-2.7.1-.5-.7-1.4-1.8-2s-3.3-2.5-4.9-4.1c-1.6-1.7-2.5-2.3-2.1-1.5.5.8-.5.1-2.2-1.5-5.1-4.9-7.6-7.1-7-5.9.3.6 0 1.1-.7 1.1-.8 0-1.2-.7-.9-1.4.4-.9 0-1.3-.9-1.1-.8.2-2.7-1.2-4.2-2.9-1.5-1.8-3-3.2-3.4-3.2-2.5.4-4.2-.3-4.2-1.7 0-1.1-.6-1.5-2-1.1-1.1.3-1.8.1-1.4-.4.3-.5-.2-.9-1-.9-.9 0-1.6-.8-1.6-1.8 0-1.3-.2-1.4-.9-.4-.6 1-1 .9-1.4-.7q-.45-2.1-2.1-1.5c-.9.3-1.6.1-1.6-.5s-.6-.8-1.4-.5-1.7 0-2.2-.7c-.5-.8-.3-1 .6-.4.9.5 1.1.4.6-.4-.6-.9-1.1-.9-2.4.1-1.2 1-1.4 1-.8 0 .4-.7.1-1.2-.8-1.2s-1.6-.5-1.6-1c0-.6-.9-1-2.1-1-1.3 0-1.8-.4-1.3-1.2s0-.9-1.4-.6c-1.2.4-2.5.1-2.9-.4-.4-.7-.1-.8.8-.3 1.1.6 1.2.5.1-.6-1-1.1-1.6-1.1-3.5 0-1.2.8-1.9 1-1.5.6.4-.5.2-1.5-.5-2.4-1.1-1.4-1-1.5.8-.1 1.9 1.4 1.9 1.4.6-.3-1.1-1.4-1.7-1.5-2.8-.5-1.1.9-1.3.8-1.1-.2.2-.8-.5-1.4-1.7-1.5-1.1 0-1.9-.5-1.8-1.1s-.4-1.1-1.2-1.1-1.2.4-1 .8c.3.4-.3.6-1.2.5-.9-.2-1.9-.8-2.1-1.4-.2-.7-.9-.9-1.5-.5s-.8 0-.4-1.1c.5-1.4.3-1.5-1.3-.6-2.7 1.5-3.7 1.2-1.5-.4 1.9-1.3 1.8-1.4-.6-.9-1.6.3-3.2-.1-4.2-1.1-1.1-1.1-1.8-1.3-2.3-.5s-.9.8-1.4-.1c-.4-.7-1.9-1.3-3.3-1.3-1.4-.1-2.3-.6-1.9-1.1.3-.5-.5-.7-1.7-.3-1.8.4-2 .3-1-.9s.9-1.3-.4-.9c-.8.4-1.8.2-2.1-.3-.3-.6-1.6-.8-2.8-.4-1.6.4-1.9.2-1.3-.9.7-1.1.5-1.1-1 .1-1.1.9-1.6 1-1.1.2.4-.6.3-1.2-.3-1.2-.5 0-1.2.6-1.4 1.2-.3.7-.6.4-.6-.7-.1-1.7-.3-1.7-1.1-.5-.6.9-1 1-1 .3 0-1.9-3.7-3.6-4.6-2.1-.4.6-.3.8.4.4.6-.3 1.3-.2 1.6.3.4.5-.1.8-1 .7-.8-.1-1.9-.8-2.4-1.5-.4-.8-1.3-1-1.9-.7-.6.4-1.1.2-1.1-.4s-.5-.8-1-.5c-.6.4-.7 1.1-.4 1.7.4.7.2.8-.5.4-.6-.4-.9-1.1-.6-1.6.3-.4-.2-1-1-1.4q-1.5-.45-1.5 1.2c0 1.4-.2 1.5-.9.2-.6-.8-.7-1.9-.3-2.5.3-.5-.2-.4-1.1.4-1.1.9-1.7 1-1.7.2 0-1.5-2.7-1.4-3.3.1-.4.8-.6.7-.6-.4-.1-1.1-.7-1.5-2.3-1-1.6.4-1.9.2-1.4-.9.4-.8 0-.5-.8.5-1.4 1.7-1.6 1.7-1.6.3 0-1.1-.5-1.4-1.7-1-1 .4-1.4.2-1-.4.3-.5 0-1-.8-1s-1.2.4-.9.8c.2.4 0 1-.6 1.4-.5.3-1-.1-1-.9 0-1-.6-1.3-1.7-.9-1.2.5-1.4.3-.8-.8.8-1.2.6-1.2-.8-.1-1.4 1.2-1.9 1.2-3.3-.2s-3.4-1.4-3.4 0c0 .3.4.3.9-.1.5-.3 1.2-.2 1.5.3.2.4-.6.8-2 .8s-2.3-.5-2-1.1c.3-.8-9.1-1.1-32.5-1.2-23.3-.1-32.7.2-32.3.9.5.7.2.8-.7.2-2-1.2-3.9-1.4-3.9-.3 0 .6-.9.5-2.2-.2-1.8-1-2-.9-1.4.7s.5 1.6-1.5-.2c-1.2-1-1.9-1.3-1.4-.5M333 2c0 .5-.2 1-.4 1-.3 0-.8-.5-1.1-1-.3-.6-.1-1 .4-1 .6 0 1.1.4 1.1 1m60.4 11.8c.3.5-.1.9-.9.9s-1.2-.4-.9-.9c.3-.4.7-.8.9-.8s.6.4.9.8M138 47c0 .5-.5 1-1.1 1-.5 0-.7-.5-.4-1 .3-.6.8-1 1.1-1 .2 0 .4.4.4 1m329 2.5c1.1 1.3 1 1.4-.4.9-.9-.3-1.6-1-1.6-1.5 0-1.3.6-1.1 2 .6m93 98c.7.9.8 1.5.2 1.5-.5 0-1.2-.7-1.6-1.5-.3-.8-.4-1.5-.2-1.5s.9.7 1.6 1.5m13.4 28.1c.3.8.2 1.2-.4.9s-1-1-1-1.6c0-1.4.7-1.1 1.4.7M2.5 270c.3.5.1 1-.4 1-.6 0-1.1-.5-1.1-1 0-.6.2-1 .4-1 .3 0 .8.4 1.1 1M592 375.4c0 .3-.4.8-1 1.1-.5.3-1 .1-1-.4 0-.6.5-1.1 1-1.1.6 0 1 .2 1 .4M24.7 418.5c0 .8-.4 1.2-.9.9s-.6-1-.3-1.5c.9-1.3 1.2-1.1 1.2.6m552.3.9c0 .2-.8 1-1.7 1.7-1.6 1.3-1.7 1.2-.4-.4s2.1-2.1 2.1-1.3M44 456c0 .5-.2 1-.4 1-.3 0-.8-.5-1.1-1-.3-.6-.1-1 .4-1 .6 0 1.1.4 1.1 1m89 94c0 .5-.2 1-.4 1-.3 0-.8-.5-1.1-1-.3-.6-.1-1 .4-1 .6 0 1.1.4 1.1 1m291 24.4c0 .3-.4.8-1 1.1-.5.3-1 .1-1-.4 0-.6.5-1.1 1-1.1.6 0 1 .2 1 .4M217.5 589c.3.6-.1.7-.9.4-1.8-.7-2.1-1.4-.7-1.4.6 0 1.3.4 1.6 1m48.9 8.8c.3.5-.1.9-.9.9s-1.2-.4-.9-.9c.3-.4.7-.8.9-.8s.6.4.9.8"/><path d="M418.1 22.6c0 1.1.3 1.4.6.6.3-.7.2-1.6-.1-1.9-.3-.4-.6.2-.5 1.3M144 42.1c0 .5.5.7 1 .4.6-.3 1-.8 1-1.1 0-.2-.4-.4-1-.4-.5 0-1 .5-1 1.1M97 76.5c-1.4.8-2 1.4-1.4 1.5.5 0 1.9-.7 3-1.5 2.4-1.8 1.6-1.9-1.6 0m-69 92.6c0 .5.5.7 1 .4.6-.3 1-.8 1-1.1 0-.2-.4-.4-1-.4-.5 0-1 .5-1 1.1M1 250c0 .6.7 1 1.5 1 1.9 0 1.9-.6 0-1.4-.8-.3-1.5-.1-1.5.4m509.5 265.1c-.4.6-.5 1.2-.2 1.5.2.3.7-.2 1-1.1.7-1.7.1-2-.8-.4m-29 24.9c-.3.5-.1 1 .4 1 .6 0 1.1-.5 1.1-1 0-.6-.2-1-.4-1-.3 0-.8.4-1.1 1m-117.9 54.8c-.3.5.1.9.9.9s1.2-.4.9-.9c-.3-.4-.7-.8-.9-.8s-.6.4-.9.8"/></svg>